<?xml version="1.0" encoding="utf-8"?>
<!-- Generator: Adobe Illustrator 26.0.1, SVG Export Plug-In . SVG Version: 6.00 Build 0)  -->
<svg version="1.1" xmlns="http://www.w3.org/2000/svg" xmlns:xlink="http://www.w3.org/1999/xlink" x="0px" y="0px"
	 viewBox="0 0 500 500" style="enable-background:new 0 0 500 500;" xml:space="preserve">
<style type="text/css">
	.st0{fill:#1B0038;}
	.st1{fill:url(#SVGID_1_);}
	.st2{fill:url(#SVGID_00000045603070615897165210000013819913817045833625_);}
	.st3{fill:url(#SVGID_00000031177859368473419920000002105544158536433579_);}
	.st4{fill:url(#SVGID_00000047031355179442061130000017880719880661659023_);}
	.st5{fill:url(#SVGID_00000115511829894073957560000000295767323864761989_);}
	.st6{fill:url(#SVGID_00000156550391011980423030000009063863283330431127_);}
	.st7{fill:url(#SVGID_00000092436104576222819430000001331651652785368228_);}
	.st8{fill:url(#SVGID_00000023990927063187925660000016608257826787191998_);}
	.st9{fill:url(#SVGID_00000162344933771938445890000015614896668722723501_);}
	.st10{fill:url(#SVGID_00000079480916418050336860000013847082371047678896_);}
	.st11{fill:url(#SVGID_00000147913341065924871280000009889666003992448418_);}
	.st12{fill:url(#SVGID_00000069398934123175164110000005555606794044749960_);}
	.st13{fill:url(#SVGID_00000133524533074992966500000001549145840427090318_);}
	.st14{fill:url(#SVGID_00000112616112512626054700000007621302454133437824_);}
	.st15{fill:url(#SVGID_00000168811461583422507800000012087860448970658718_);}
	.st16{fill:#FFFFFF;}
</style>
<g id="BACKGROUND">
	<rect class="st0" width="500" height="500"/>
</g>
<g id="OBJECTS">
	<g>
		<g>
			<g>
				<linearGradient id="SVGID_1_" gradientUnits="userSpaceOnUse" x1="250.1735" y1="97.9525" x2="250.1735" y2="316.7079">
					<stop  offset="0" style="stop-color:#EBCD00"/>
					<stop  offset="1" style="stop-color:#DC4800"/>
				</linearGradient>
				<path class="st1" d="M250.2,322.4c-6.4,0-12.4-2.5-16.9-7l-95.9-95.9c-9.3-9.3-9.3-24.4,0-33.7l95.9-95.9
					c3.8-3.8,8.7-6.2,14-6.8l0.5,4.2c-4.4,0.5-8.4,2.5-11.5,5.6l-95.9,95.9c-7.6,7.6-7.6,20.1,0,27.7l95.9,95.9
					c3.7,3.7,8.6,5.7,13.9,5.7s10.2-2,13.9-5.7l95.9-95.9c3.7-3.7,5.7-8.6,5.7-13.9c0-5.2-2-10.2-5.7-13.9l-41.4-41.4l3-3l41.4,41.4
					c4.5,4.5,7,10.5,7,16.9c0,6.4-2.5,12.4-7,16.9L267,315.4C262.5,319.9,256.5,322.4,250.2,322.4z"/>
			</g>
			<g>
				<g>
					
						<linearGradient id="SVGID_00000168807819087452805630000008083515964896681353_" gradientUnits="userSpaceOnUse" x1="209.599" y1="91.6704" x2="209.599" y2="333.7426">
						<stop  offset="0" style="stop-color:#EBCD00"/>
						<stop  offset="1" style="stop-color:#DC4800"/>
					</linearGradient>
					<path style="fill:url(#SVGID_00000168807819087452805630000008083515964896681353_);" d="M204,188.4c-0.6-1.2-2-1.7-3.2-1.2
						c-1.2,0.6-1.7,2-1.2,3.2l15.7,33.6c0.6,1.2,2,1.7,3.2,1.2c1.2-0.6,1.7-2,1.2-3.2L204,188.4z"/>
					
						<linearGradient id="SVGID_00000141425946370226864290000013667217088143235235_" gradientUnits="userSpaceOnUse" x1="201.2296" y1="91.6705" x2="201.2296" y2="333.7427">
						<stop  offset="0" style="stop-color:#EBCD00"/>
						<stop  offset="1" style="stop-color:#DC4800"/>
					</linearGradient>
					<path style="fill:url(#SVGID_00000141425946370226864290000013667217088143235235_);" d="M195.6,192.3c-0.6-1.2-2-1.7-3.2-1.2
						c-1.2,0.6-1.7,2-1.2,3.2l15.7,33.6c0.6,1.2,2,1.7,3.2,1.2c1.2-0.6,1.7-2,1.2-3.2L195.6,192.3z"/>
					
						<linearGradient id="SVGID_00000063610726188000677740000016364781332531805086_" gradientUnits="userSpaceOnUse" x1="208.9866" y1="91.6935" x2="208.9866" y2="333.7241">
						<stop  offset="0" style="stop-color:#EBCD00"/>
						<stop  offset="1" style="stop-color:#DC4800"/>
					</linearGradient>
					<path style="fill:url(#SVGID_00000063610726188000677740000016364781332531805086_);" d="M236.6,282.8
						c-11.7-1.5-22.9-5.9-32.2-13.9c-12-10.4-19.7-25.4-22.1-41.1c-1-6.3-1.2-13-0.7-19.6l14.4,30.9c0.9,1.9,2.8,3.1,4.7,3.1
						c0.8,0,1.5-0.2,2.3-0.5l11.8-5.5l18.2,39.1L236.6,282.8z"/>
					
						<linearGradient id="SVGID_00000143613345135350888660000004364549030520148103_" gradientUnits="userSpaceOnUse" x1="217.9684" y1="91.67" x2="217.9684" y2="333.743">
						<stop  offset="0" style="stop-color:#EBCD00"/>
						<stop  offset="1" style="stop-color:#DC4800"/>
					</linearGradient>
					<path style="fill:url(#SVGID_00000143613345135350888660000004364549030520148103_);" d="M223.6,220.2c0.6,1.2,2,1.7,3.2,1.2
						c1.2-0.6,1.7-2,1.2-3.2l-15.7-33.6c-0.6-1.2-2-1.7-3.2-1.2c-1.2,0.6-1.7,2-1.2,3.2L223.6,220.2z"/>
					
						<linearGradient id="SVGID_00000089553319365340029570000016659413610466449818_" gradientUnits="userSpaceOnUse" x1="192.9177" y1="95.6207" x2="192.9177" y2="337.6929">
						<stop  offset="0" style="stop-color:#EBCD00"/>
						<stop  offset="1" style="stop-color:#DC4800"/>
					</linearGradient>
					<path style="fill:url(#SVGID_00000089553319365340029570000016659413610466449818_);" d="M187.3,196.3c-0.6-1.2-2-1.7-3.2-1.2
						c-1.2,0.6-1.7,2-1.2,3.2l15.7,33.6c0.6,1.2,2,1.7,3.2,1.2c1.2-0.6,1.7-2,1.2-3.2L187.3,196.3z"/>
					
						<linearGradient id="SVGID_00000008142815625191559950000002946399928785111973_" gradientUnits="userSpaceOnUse" x1="294.3082" y1="91.6704" x2="294.3082" y2="333.7431">
						<stop  offset="0" style="stop-color:#EBCD00"/>
						<stop  offset="1" style="stop-color:#DC4800"/>
					</linearGradient>
					<path style="fill:url(#SVGID_00000008142815625191559950000002946399928785111973_);" d="M292.9,228l-24.5,52.5
						c11.9-3.2,23.1-9,32.1-17.4c12.6-11.9,20.5-29.1,19.7-46.5c0-0.7-0.1-1.4-0.2-2.1C316,225.4,304,231.3,292.9,228z"/>
					
						<linearGradient id="SVGID_00000078753313968745727050000003897795423238016428_" gradientUnits="userSpaceOnUse" x1="227.7328" y1="91.6704" x2="227.7328" y2="333.7419">
						<stop  offset="0" style="stop-color:#EBCD00"/>
						<stop  offset="1" style="stop-color:#DC4800"/>
					</linearGradient>
					<path style="fill:url(#SVGID_00000078753313968745727050000003897795423238016428_);" d="M232.2,125.2
						c7.1-6.1,2.1-19.3,2.1-19.3s1.5,7.4-6.7,12.5c-8.2,5.1-8.1,16.6-8.1,16.6C220,131.3,225.1,131.3,232.2,125.2z"/>
					
						<linearGradient id="SVGID_00000109745475890421194680000012257729251344274092_" gradientUnits="userSpaceOnUse" x1="302.132" y1="91.6703" x2="302.132" y2="333.7425">
						<stop  offset="0" style="stop-color:#EBCD00"/>
						<stop  offset="1" style="stop-color:#DC4800"/>
					</linearGradient>
					<path style="fill:url(#SVGID_00000109745475890421194680000012257729251344274092_);" d="M305.4,125.9c5.6-3.2-2-15.2-4.8-17.2
						c0,0,2.5,7.8-2.2,14.9c-4.3,6.6,0.8,13,0.8,13S299.8,129.2,305.4,125.9z"/>
				</g>
				
					<linearGradient id="SVGID_00000024682214005622311260000003814710274954869133_" gradientUnits="userSpaceOnUse" x1="250.1673" y1="91.6931" x2="250.1673" y2="333.743">
					<stop  offset="0" style="stop-color:#EBCD00"/>
					<stop  offset="1" style="stop-color:#DC4800"/>
				</linearGradient>
				<path style="fill:url(#SVGID_00000024682214005622311260000003814710274954869133_);" d="M323,191.9l-4.6,12.6l-1.7,4.2
					c-3.6,8.8-13.9,12.9-22.5,8.8c-8.7-4-12.2-14.5-7.7-23l11.9-22.5l-16.6,20.9c-8.2,10.4-5.5,25.3,5.2,32.3l-26.3,56.4l-0.3,0.6
					c-2.3,0.4-4.6,0.7-6.9,0.9c-3.2,0.3-6.3,0.3-9.5,0.2l-2.7-5.7l-20.6-44.3l11.8-5.5c2.7-1.2,3.8-4.4,2.6-7l-17.6-37.8l-2.1-4.6
					l-0.6-1.3c-0.3-0.7-0.8-1.3-1.4-1.8v0c-0.1-0.1-0.2-0.1-0.3-0.2c-1.5-1.1-3.5-1.4-5.3-0.5l-6.4,3L177.3,189
					c0.6-1.8,10.7-9.7,10.7-9.7s13.2-27.2,23.1-37.3c1.1-1.2,2.3-2.3,3.5-3.3c-5.9,10.8-6.6,24.4-1.7,35.7c0.1,0.3,0.3,0.7,0.4,1
					c3.5-16.7,10.8-32.2,22.5-44.6c7.9-8.3,14.7-17.8,18.5-28.7s4.1-23.1-0.6-33.5c12.4,5.7,23,15.1,29.9,26.9
					c6.9,11.7,10.1,25.6,8.9,39.2c-0.3,3.9-1.6,7.3-1,11.4c0.4,2.8,1.4,6.1,3.4,8.1c0.3-1,0.6-2,0.8-2.9c0,0,0-0.1,0-0.1
					c0.9-2.8,1.9-5.4,4-7.8c3.6-4.2,8.7-6.7,13.9-8.5c-1.7,0.6-3.7,4.7-4.5,6.3c-1.2,2.4-2.1,5-2.6,7.6c-0.9,5.2,0.2,11,0.9,16.3
					c1.7,11.9,6.5,23.1,9.6,34.6L323,191.9z"/>
				
					<linearGradient id="SVGID_00000126294669961126728510000001104639215135204769_" gradientUnits="userSpaceOnUse" x1="266.0133" y1="74.3865" x2="288.3979" y2="146.8073">
					<stop  offset="0" style="stop-color:#EBCD00;stop-opacity:0"/>
					<stop  offset="1" style="stop-color:#DC4800"/>
				</linearGradient>
				<path style="fill:url(#SVGID_00000126294669961126728510000001104639215135204769_);" d="M295.5,152.7c-2.2,7.9-1.5,20-1.5,20
					s-21.5-8.1-14.5-26.3c7-18.2,2.2-32.3,2.2-32.3c-2.6,10.1-9,15.4-9,15.4c14.1-34.7-18.8-60.8-18.8-60.8
					c12.4,5.7,23,15.2,29.9,26.9c6.9,11.7,10.1,25.6,8.9,39.2c-0.3,3.9-1.6,7.3-1,11.4c0.4,2.8,1.4,6.1,3.4,8.1c0.3-1,0.6-2,0.8-2.9
					C295.8,151.8,295.6,152.3,295.5,152.7z"/>
				
					<linearGradient id="SVGID_00000042719350936042116500000006158642283813200565_" gradientUnits="userSpaceOnUse" x1="203.9454" y1="144.9986" x2="210.9354" y2="167.6132">
					<stop  offset="0" style="stop-color:#EBCD00;stop-opacity:0"/>
					<stop  offset="1" style="stop-color:#DC4800"/>
				</linearGradient>
				<path style="fill:url(#SVGID_00000042719350936042116500000006158642283813200565_);" d="M213.4,175.4c0,0,0,0,0,0.1
					c-1.5-1.2-3.7-1.6-5.6-0.7l-6.4,3c-0.6-11.2,2.2-24.8,13.3-39C208.6,149.8,208.1,163.9,213.4,175.4z"/>
				
					<linearGradient id="SVGID_00000078038911581370159340000004109785092513153962_" gradientUnits="userSpaceOnUse" x1="239.2254" y1="80.9242" x2="239.2254" y2="209.9666">
					<stop  offset="0" style="stop-color:#EBCD00;stop-opacity:0"/>
					<stop  offset="0.9575" style="stop-color:#FFDB96"/>
				</linearGradient>
				<path style="fill:url(#SVGID_00000078038911581370159340000004109785092513153962_);" d="M263.7,111.6c0,0,0.4-3.1-0.7-7.2
					c0,0-5,21.5-19.8,34.2c-12,10.4-23.3,34-25.8,44.5l-2.1-4.6l-0.6-1.3c-0.3-0.7-0.8-1.3-1.4-1.8v0c-0.1-0.1-0.2-0.1-0.3-0.2
					c-0.1-0.3-0.1-0.6-0.1-0.9c0.1,0.3,0.3,0.7,0.4,1c3.5-16.7,10.8-32.2,22.5-44.6c7.9-8.3,14.7-17.8,18.5-28.7s4.1-23.1-0.6-33.5
					C254.4,69.5,270.8,91.7,263.7,111.6z"/>
				
					<linearGradient id="SVGID_00000142859583978044015490000012530299369890766986_" gradientUnits="userSpaceOnUse" x1="176.4408" y1="210.244" x2="230.4271" y2="291.6624">
					<stop  offset="0" style="stop-color:#EBCD00;stop-opacity:0"/>
					<stop  offset="0.9575" style="stop-color:#FFDB96"/>
				</linearGradient>
				<path style="fill:url(#SVGID_00000142859583978044015490000012530299369890766986_);" d="M233.1,275.2l3.5,7.5
					c-11.7-1.5-22.9-5.9-32.2-13.9c-12-10.4-19.7-25.4-22.1-41.1c-1-6.3-1.2-13-0.7-19.6l14.4,30.9c0.9,1.9,2.8,3.1,4.7,3.1
					c1.6,5,4.2,9.3,6.9,14c-0.4-0.3-6.1-3.1-9.9-7.2C202.5,256.4,214.9,269.7,233.1,275.2z"/>
				
					<linearGradient id="SVGID_00000001644407390798141280000009994278082528467349_" gradientUnits="userSpaceOnUse" x1="240.9227" y1="278.8885" x2="258.2599" y2="284.375">
					<stop  offset="0" style="stop-color:#EBCD00;stop-opacity:0"/>
					<stop  offset="0.9575" style="stop-color:#FFDB96"/>
				</linearGradient>
				<path style="fill:url(#SVGID_00000001644407390798141280000009994278082528467349_);" d="M260.7,281.6l-0.3,0.6
					c-2.3,0.4-4.6,0.7-6.9,0.9c-3.2,0.3-6.3,0.3-9.5,0.2l-2.7-5.7C249.9,279.9,256.1,281.1,260.7,281.6z"/>
			</g>
		</g>
		<g>
			<path class="st16" d="M62.9,386.7l3.7-0.5l15.9-45.5h10.7l15.8,45.5l3.7,0.5v6.3H95v-6.3l3.6-0.6l-2.3-7.2H79.4l-2.3,7.2l3.6,0.6
				v6.3H62.9V386.7z M81.9,371.2h12L88,352.7h-0.2L81.9,371.2z"/>
			<path class="st16" d="M161.9,367.2c0,7.7-2.2,14-6.6,19c-4.4,5-10.1,7.5-17.2,7.5c-7.1,0-12.8-2.5-17.1-7.5
				c-4.3-5-6.5-11.3-6.5-19v-0.8c0-7.6,2.2-13.9,6.5-19c4.3-5,10-7.5,17.1-7.5c7.1,0,12.8,2.5,17.2,7.5c4.4,5,6.6,11.3,6.6,19V367.2
				z M151.4,366.4c0-5.4-1.1-9.8-3.4-13.2c-2.3-3.4-5.6-5.1-10-5.1c-4.4,0-7.7,1.7-9.9,5c-2.2,3.4-3.2,7.8-3.2,13.2v0.9
				c0,5.5,1.1,9.9,3.3,13.3c2.2,3.4,5.5,5,9.9,5c4.4,0,7.8-1.7,10-5c2.2-3.4,3.3-7.8,3.3-13.3V366.4z"/>
			<path class="st16" d="M209,340.7c6,0,10.7,1.5,14.2,4.6c3.5,3.1,5.2,7.1,5.2,12.1c0,5-1.7,9-5.2,12.1c-3.5,3-8.2,4.6-14.2,4.6
				h-8.8v11.6l5.6,1.1v6.3h-21.7v-6.3l5.6-1.1v-37.5l-5.6-1.1v-6.3h5.6H209z M200.2,365.9h8.8c2.9,0,5.1-0.8,6.6-2.4
				c1.5-1.6,2.2-3.6,2.2-6.1c0-2.5-0.7-4.6-2.2-6.2c-1.5-1.6-3.7-2.5-6.6-2.5h-8.8V365.9z"/>
			<path class="st16" d="M279.5,367.2c0,7.7-2.2,14-6.6,19c-4.4,5-10.1,7.5-17.2,7.5c-7.1,0-12.8-2.5-17.1-7.5
				c-4.3-5-6.5-11.3-6.5-19v-0.8c0-7.6,2.2-13.9,6.5-19c4.3-5,10-7.5,17.1-7.5c7.1,0,12.8,2.5,17.2,7.5c4.4,5,6.6,11.3,6.6,19V367.2
				z M269,366.4c0-5.4-1.1-9.8-3.4-13.2c-2.3-3.4-5.6-5.1-10-5.1s-7.7,1.7-9.9,5c-2.2,3.4-3.2,7.8-3.2,13.2v0.9
				c0,5.5,1.1,9.9,3.3,13.3c2.2,3.4,5.5,5,9.9,5c4.4,0,7.8-1.7,10-5c2.2-3.4,3.3-7.8,3.3-13.3V366.4z"/>
			<path class="st16" d="M337.1,340.7v6.3l-5.6,1.1V393h-10.4L300,357.8l-0.2,0v27.8l5.6,1.1v6.3h-21.7v-6.3l5.6-1.1v-37.5l-5.6-1.1
				v-6.3h5.6h10.5l21.1,35.2l0.2,0v-27.8l-5.6-1.1v-6.3h16H337.1z"/>
			<path class="st16" d="M386.5,340.7v13.9h-8l-0.4-5.9h-9.6v36.8l5.6,1.1v6.3h-21.7v-6.3l5.6-1.1v-36.8h-9.6l-0.4,5.9h-8v-13.9
				H386.5z"/>
			<path class="st16" d="M436.7,367.2c0,7.7-2.2,14-6.6,19c-4.4,5-10.1,7.5-17.2,7.5c-7.1,0-12.8-2.5-17.1-7.5
				c-4.3-5-6.5-11.3-6.5-19v-0.8c0-7.6,2.2-13.9,6.5-19c4.3-5,10-7.5,17.1-7.5c7.1,0,12.8,2.5,17.2,7.5c4.4,5,6.6,11.3,6.6,19V367.2
				z M426.3,366.4c0-5.4-1.1-9.8-3.4-13.2c-2.3-3.4-5.6-5.1-10-5.1c-4.4,0-7.7,1.7-9.9,5c-2.2,3.4-3.2,7.8-3.2,13.2v0.9
				c0,5.5,1.1,9.9,3.3,13.3c2.2,3.4,5.5,5,9.9,5c4.4,0,7.8-1.7,10-5c2.2-3.4,3.3-7.8,3.3-13.3V366.4z"/>
		</g>
		<g>
			<path class="st16" d="M146.4,414.9h-1.2l-0.2-2.6c-0.4-0.6-1.1-1-1.8-1.3c-0.8-0.3-1.7-0.5-2.7-0.5c-1.5,0-2.7,0.3-3.5,1
				c-0.8,0.7-1.3,1.5-1.3,2.4c0,0.9,0.4,1.7,1.1,2.3c0.8,0.6,2.1,1.2,3.9,1.6c2,0.5,3.4,1.2,4.5,2c1,0.9,1.5,2,1.5,3.4
				c0,1.5-0.6,2.6-1.8,3.5c-1.2,0.9-2.7,1.3-4.5,1.3c-1.3,0-2.5-0.2-3.6-0.7c-1.1-0.5-2-1.1-2.7-2v-3.2h1.2l0.2,2.7
				c0.6,0.6,1.3,1.1,2.1,1.4c0.9,0.3,1.8,0.5,2.8,0.5c1.4,0,2.6-0.3,3.5-1c0.9-0.6,1.3-1.5,1.3-2.5c0-1-0.4-1.8-1.1-2.4
				c-0.7-0.6-2-1.2-3.9-1.7c-2-0.5-3.5-1.1-4.5-2c-1-0.8-1.5-1.9-1.5-3.2c0-1.4,0.6-2.5,1.7-3.4c1.2-0.9,2.7-1.3,4.5-1.3
				c1.3,0,2.5,0.2,3.5,0.7c1,0.5,1.9,1.1,2.5,1.9V414.9z"/>
			<path class="st16" d="M169.5,409.5v3.8h-1.3l-0.1-2.6h-5v15.7l2,0.2v1.1h-5.6v-1.1l2-0.2v-15.7h-5l-0.1,2.6h-1.3v-3.8H169.5z"/>
			<path class="st16" d="M188.6,418.8h-7.5v7.5h8.6l0.1-2.7h1.3v4h-13.6v-1.1l2-0.2v-15.7l-2-0.2v-1.1h2h11.5v4h-1.3l-0.1-2.7h-8.5
				v6.8h7.5V418.8z"/>
			<path class="st16" d="M199.9,426.6l1.3-0.1l6.5-17h1.4l6.4,17l1.4,0.1v1.1h-4.5v-1.1l1.6-0.1l-1.5-4.1h-8.2l-1.5,4.1l1.6,0.1v1.1
				h-4.5V426.6z M204.8,421h7.2l-3.5-9.6h-0.1L204.8,421z"/>
			<path class="st16" d="M225,426.6l2-0.2v-15.7l-2-0.2v-1.1h5.6v1.1l-2,0.2v7.1h2.5l6.1-7.2l-1.7-0.1v-1.1h5.1v1.1l-1.6,0.2
				l-6.5,7.7l7,8l1.6,0.1v1.1h-5.2v-1.1l1.7-0.1l-6.5-7.4h-2.5v7.3l2,0.2v1.1H225V426.6z"/>
			<path class="st16" d="M249.1,410.6v-1.1h5.6v1.1l-2,0.2v7.3H263v-7.3l-2-0.2v-1.1h2h1.5h2v1.1l-2,0.2v15.7l2,0.2v1.1H261v-1.1
				l2-0.2v-7.1h-10.3v7.1l2,0.2v1.1h-5.6v-1.1l2-0.2v-15.7L249.1,410.6z"/>
			<path class="st16" d="M290.8,418.7c0,2.7-0.7,5-2.2,6.7c-1.5,1.7-3.4,2.6-5.7,2.6c-2.3,0-4.2-0.9-5.6-2.6
				c-1.4-1.7-2.2-3.9-2.2-6.7v-0.2c0-2.7,0.7-4.9,2.2-6.7c1.4-1.7,3.3-2.6,5.6-2.6c2.3,0,4.2,0.9,5.7,2.6c1.5,1.7,2.2,3.9,2.2,6.7
				V418.7z M289.3,418.4c0-2.4-0.6-4.3-1.7-5.7c-1.1-1.5-2.7-2.2-4.7-2.2c-1.9,0-3.4,0.7-4.6,2.2c-1.1,1.5-1.7,3.4-1.7,5.7v0.3
				c0,2.4,0.6,4.3,1.7,5.7s2.6,2.2,4.6,2.2c2,0,3.5-0.7,4.7-2.2c1.1-1.5,1.7-3.4,1.7-5.8V418.4z"/>
			<path class="st16" d="M304.9,409.5v1.1l-2,0.2v11.1c0,1.5,0.5,2.7,1.4,3.6c0.9,0.8,2.1,1.3,3.6,1.3c1.5,0,2.7-0.4,3.7-1.3
				c0.9-0.8,1.4-2,1.4-3.6v-11.1l-2-0.2v-1.1h5.6v1.1l-2,0.2v11.1c0,2-0.6,3.5-1.8,4.5c-1.2,1-2.8,1.6-4.7,1.6
				c-1.9,0-3.5-0.5-4.7-1.6c-1.2-1.1-1.8-2.6-1.8-4.5v-11.1l-2-0.2v-1.1h2h1.5H304.9z"/>
			<path class="st16" d="M337.3,414.9h-1.2l-0.2-2.6c-0.4-0.6-1.1-1-1.8-1.3c-0.8-0.3-1.7-0.5-2.7-0.5c-1.5,0-2.7,0.3-3.5,1
				c-0.8,0.7-1.3,1.5-1.3,2.4c0,0.9,0.4,1.7,1.1,2.3c0.8,0.6,2.1,1.2,3.9,1.6c2,0.5,3.4,1.2,4.5,2c1,0.9,1.5,2,1.5,3.4
				c0,1.5-0.6,2.6-1.8,3.5s-2.7,1.3-4.5,1.3c-1.3,0-2.5-0.2-3.6-0.7c-1.1-0.5-2-1.1-2.7-2v-3.2h1.2l0.2,2.7c0.5,0.6,1.3,1.1,2.1,1.4
				c0.9,0.3,1.8,0.5,2.8,0.5c1.4,0,2.6-0.3,3.5-1c0.9-0.6,1.3-1.5,1.3-2.5c0-1-0.4-1.8-1.1-2.4c-0.7-0.6-2-1.2-3.9-1.7
				c-2-0.5-3.5-1.1-4.5-2c-1-0.8-1.5-1.9-1.5-3.2c0-1.4,0.6-2.5,1.7-3.4c1.2-0.9,2.7-1.3,4.5-1.3c1.3,0,2.5,0.2,3.5,0.7
				s1.9,1.1,2.5,1.9V414.9z"/>
			<path class="st16" d="M357.1,418.8h-7.5v7.5h8.6l0.1-2.7h1.3v4h-13.6v-1.1l2-0.2v-15.7l-2-0.2v-1.1h2h11.5v4h-1.3l-0.1-2.7h-8.5
				v6.8h7.5V418.8z"/>
		</g>
	</g>
</g>
</svg>
